# xmcd CD database file generated by Grip 3.3.1
# 
# Track frame offsets:
#       182
#       10455
#       23360
#       38542
#       51915
#       69142
#       80605
#       92137
#       104622
#       118855
#       126325
#       140295
# 
# Disc length: 2063 seconds
# 
# Revision: 2
# Processed by: cddbd v1.5.1PL0 Copyright (c) Steve Scherf et al.
# Submitted via: Grip 3.3.1
# 
DISCID=99080d0c
DTITLE=Willie, Waylon and Friends - Willie, Waylon and Friends - Disc 3
DYEAR=1998
DGENRE=Country
TTITLE0=Last Cowboy Song
TTITLE1=Just To Satisfy You
TTITLE2=Sittin' on the Dock of the Bay
TTITLE3=Good Hearted Woman
TTITLE4=Mr Shuck and Jive
TTITLE5=Mamas Don't Let Your Babies Grow Up To Be Cowboys
TTITLE6=Pick Up The Tempo
TTITLE7=Heroes
TTITLE8=The Teddy Bear Song
TTITLE9=Heaven or Hell
TTITLE10=If You Can Touch Her At All
TTITLE11=Write Your Own Songs
EXTD=YEAR: 1998
EXTT0=
EXTT1=
EXTT2=
EXTT3=
EXTT4=
EXTT5=
EXTT6=
EXTT7=
EXTT8=
EXTT9=
EXTT10=
EXTT11=
PLAYORDER=
